<?xml version="1.0" encoding="UTF-8"?>
<svg xmlns="http://www.w3.org/2000/svg" version="1.1" viewBox="0 0 1041 547">
  <defs>
    <style>
      .cls-1 {
        stroke-linecap: round;
        stroke-miterlimit: 288;
      }

      .cls-1, .cls-2 {
        stroke-width: 0px;
      }

      .cls-1, .cls-2, .cls-3 {
        fill: none;
        stroke: red;
      }

      .cls-4, .cls-3 {
        isolation: isolate;
      }

      .cls-2, .cls-3 {
        stroke-miterlimit: 10;
      }

      .cls-3 {
        font-family: Guardians, Guardians;
        font-size: 17.1px;
      }
    </style>
  </defs>
  <!-- Generator: Adobe Illustrator 28.6.0, SVG Export Plug-In . SVG Version: 1.2.0 Build 709)  -->
  <g>
    <g id="Layer_1">
      <g id="svgGroup">
        <path id="front_outsideCutPath" class="cls-1" d="M0,314v77.2h8.5v78.6H0v77.2h70.6v-8.5h78.6v8.5h78.6v-8.5h78.6v8.5h70.6v-77.2h-8.5v-78.6h8.5v-77.2h-70.6v8.5h-78.6v-8.5h-78.6v8.5h-78.6v-8.5H0Z" vector-effect="non-scaling-stroke"/>
        <path id="left_outsideCutPath" class="cls-1" d="M394.5,314v77.2h-8.5v78.6h8.5v77.2h86.7v-8.5h78.6v8.5h86.7v-77.2h8.5v-78.6h-8.5v-77.2h-86.7v8.5h-78.6v-8.5h-86.7Z" vector-effect="non-scaling-stroke"/>
        <path id="top_outsideCutPath" class="cls-1" d="M672.5,286.5v86.7h-8.5v78.6h8.5v86.7h62.1v8.5h78.6v-8.5h78.6v8.5h78.6v-8.5h62.1v-86.7h8.5v-78.6h-8.5v-86.7h-62.1v-8.5h-78.6v8.5h-78.6v-8.5h-78.6v8.5h-62.1Z" vector-effect="non-scaling-stroke"/>
        <path id="back_outsideCutPath" class="cls-1" d="M0,72v77.2h8.5v78.6H0v77.2h70.6v-8.5h78.6v8.5h78.6v-8.5h78.6v8.5h70.6v-77.2h-8.5v-78.6h8.5v-77.2h-70.6v8.5h-78.6v-8.5h-78.6v8.5h-78.6v-8.5H0Z" vector-effect="non-scaling-stroke"/>
        <path id="right_outsideCutPath" class="cls-1" d="M394.5,72v77.2h-8.5v78.6h8.5v77.2h86.7v-8.5h78.6v8.5h86.7v-77.2h8.5v-78.6h-8.5v-77.2h-86.7v8.5h-78.6v-8.5h-86.7Z" vector-effect="non-scaling-stroke"/>
        <path id="bottom_outsideCutPath" class="cls-1" d="M672.5,8.5v86.7h-8.5v78.6h8.5v86.7h62.1v8.5h78.6v-8.5h78.6v8.5h78.6v-8.5h62.1v-86.7h8.5v-78.6h-8.5V8.5h-62.1V0h-78.6v8.5h-78.6V0h-78.6v8.5h-62.1Z" vector-effect="non-scaling-stroke"/>
      </g>
      <g class="cls-4">
        <text class="cls-3" transform="translate(45.6 175.6) scale(.9 1)"><tspan x="0" y="0"> </tspan></text>
        <text class="cls-3" transform="translate(158.5 175.6) scale(.9 1)"><tspan x="0" y="0"> </tspan></text>
      </g>
      <g class="cls-4">
        <g class="cls-4">
          <path d="M53.7,223.6v-14.3h-5.1v-2.9h13.7v2.9h-5.1v14.3h-3.5Z"/>
          <path d="M62,217.2c0-1.1.3-2.2.8-3.2s1.3-1.8,2.3-2.3,2.1-.8,3.3-.8c1.9,0,3.4.6,4.6,1.8s1.8,2.8,1.8,4.6-.6,3.4-1.8,4.7-2.7,1.9-4.6,1.9-2.2-.3-3.3-.8-1.8-1.3-2.4-2.3-.8-2.2-.8-3.6ZM65.3,217.4c0,1.2.3,2.2.9,2.8s1.3,1,2.2,1,1.6-.3,2.2-1,.9-1.6.9-2.9-.3-2.2-.9-2.8-1.3-1-2.2-1-1.6.3-2.2,1-.9,1.6-.9,2.8Z"/>
          <path d="M85.6,223.6v-1.9c-.5.7-1,1.2-1.8,1.6s-1.5.6-2.3.6-1.6-.2-2.2-.6-1.1-.9-1.4-1.5-.4-1.6-.4-2.8v-7.9h3.3v5.7c0,1.8,0,2.8.2,3.2s.3.7.7.9.7.3,1.2.3,1.1-.2,1.5-.5.8-.7.9-1.1.2-1.6.2-3.4v-5.2h3.3v12.4h-3.1Z"/>
          <path d="M102.9,214.8l-3.2.6c-.1-.6-.4-1.1-.7-1.5s-.9-.5-1.5-.5-1.5.3-2,.8-.7,1.5-.7,2.8.2,2.5.7,3.1,1.2.9,2,.9,1.1-.2,1.5-.5.7-1,.8-1.8l3.2.6c-.3,1.5-1,2.6-1.9,3.4s-2.2,1.1-3.8,1.1-3.3-.6-4.4-1.7-1.6-2.7-1.6-4.8.5-3.7,1.6-4.8,2.6-1.7,4.4-1.7,2.7.3,3.6,1,1.5,1.6,1.9,3Z"/>
          <path d="M108.7,206.4v6.3c1.1-1.2,2.3-1.9,3.8-1.9s1.4.1,2.1.4,1.1.6,1.4,1.1.5.9.6,1.5.2,1.4.2,2.5v7.3h-3.3v-6.6c0-1.3,0-2.1-.2-2.5s-.3-.6-.7-.8-.7-.3-1.2-.3-1,.1-1.5.4-.7.7-.9,1.2-.3,1.3-.3,2.4v6.2h-3.3v-17.2h3.3Z"/>
          <path d="M126.5,211.2h3v1.7c1.1-1.3,2.4-2,3.9-2s1.5.2,2.1.5,1.1.8,1.4,1.5c.5-.7,1.1-1.2,1.8-1.5s1.3-.5,2-.5,1.7.2,2.3.6,1.1.9,1.4,1.6c.2.5.3,1.4.3,2.6v8h-3.3v-7.1c0-1.2-.1-2-.3-2.4-.3-.5-.8-.7-1.4-.7s-.9.1-1.3.4-.7.7-.9,1.2-.3,1.4-.3,2.6v6h-3.3v-6.8c0-1.2,0-2-.2-2.3s-.3-.6-.5-.8-.6-.3-1-.3-1,.1-1.4.4-.7.7-.9,1.2-.3,1.4-.3,2.6v6h-3.3v-12.4Z"/>
          <path d="M146.5,211.2h3.5l3,8.8,2.9-8.8h3.4l-4.4,12-.8,2.2c-.3.7-.6,1.3-.8,1.7s-.6.7-.9.9-.8.4-1.3.6-1.1.2-1.7.2-1.3,0-1.9-.2l-.3-2.6c.5.1,1,.2,1.4.2.8,0,1.3-.2,1.7-.7s.6-1,.8-1.7l-4.7-12.5Z"/>
          <path d="M168.1,223.6v-17.2h3.3v17.2h-3.3Z"/>
          <path d="M182,219.6l3.3.6c-.4,1.2-1.1,2.1-2,2.7s-2,.9-3.4.9c-2.2,0-3.8-.7-4.8-2.1-.8-1.1-1.2-2.6-1.2-4.3s.5-3.7,1.6-4.8,2.4-1.8,4.1-1.8,3.3.6,4.4,1.8,1.6,3.1,1.5,5.6h-8.2c0,1,.3,1.7.8,2.3s1.1.8,1.9.8.9-.1,1.3-.4.6-.7.8-1.4ZM182.1,216.3c0-1-.3-1.7-.7-2.2s-1-.7-1.7-.7-1.3.3-1.8.8-.7,1.2-.7,2.1h4.9Z"/>
          <path d="M190.6,215l-3-.5c.3-1.2.9-2.1,1.7-2.7s2-.9,3.7-.9,2.6.2,3.3.5,1.2.8,1.5,1.3.4,1.5.4,2.9v3.8c0,1.1,0,1.9.1,2.4s.3,1.1.6,1.7h-3.3c0-.2-.2-.5-.3-1,0-.2,0-.3-.1-.4-.6.5-1.2,1-1.8,1.2s-1.3.4-2.1.4c-1.3,0-2.3-.3-3-1s-1.1-1.6-1.1-2.6.2-1.3.5-1.9.8-1,1.4-1.3,1.5-.5,2.6-.8c1.5-.3,2.6-.6,3.2-.8v-.3c0-.6-.2-1.1-.5-1.4s-.9-.4-1.8-.4-1,.1-1.4.3-.6.6-.8,1.2ZM195,217.6c-.4.1-1.1.3-2,.5s-1.5.4-1.8.6c-.4.3-.6.7-.6,1.2s.2.9.5,1.2.8.5,1.3.5,1.2-.2,1.7-.6c.4-.3.7-.7.8-1.1,0-.3.1-.8.1-1.6v-.7Z"/>
          <path d="M204.9,223.6l-5-12.4h3.5l2.3,6.4.7,2.1c.2-.5.3-.9.3-1.1.1-.4.2-.7.4-1.1l2.4-6.4h3.4l-4.9,12.4h-3Z"/>
          <path d="M222,219.6l3.3.6c-.4,1.2-1.1,2.1-2,2.7s-2,.9-3.4.9c-2.2,0-3.8-.7-4.8-2.1-.8-1.1-1.2-2.6-1.2-4.3s.5-3.7,1.6-4.8,2.4-1.8,4.1-1.8,3.3.6,4.4,1.8,1.6,3.1,1.5,5.6h-8.2c0,1,.3,1.7.8,2.3s1.1.8,1.9.8.9-.1,1.3-.4.6-.7.8-1.4ZM222.2,216.3c0-1-.3-1.7-.7-2.2s-1-.7-1.7-.7-1.3.3-1.8.8-.7,1.2-.7,2.1h4.9Z"/>
          <path d="M227,220l3.3-.5c.1.6.4,1.1.9,1.5s1,.5,1.8.5,1.5-.2,1.9-.5c.3-.2.4-.5.4-.9s0-.5-.2-.6c-.2-.2-.5-.3-1.1-.4-2.7-.6-4.3-1.1-5.1-1.6-1-.7-1.5-1.6-1.5-2.8s.4-2,1.3-2.7,2.2-1.1,4-1.1,3,.3,3.8.8,1.4,1.4,1.7,2.5l-3.1.6c-.1-.5-.4-.9-.8-1.1s-.9-.4-1.6-.4-1.5.1-1.9.4c-.2.2-.4.4-.4.7s.1.4.3.6c.3.2,1.3.5,3.1.9s3,.9,3.7,1.5c.7.6,1,1.4,1,2.4s-.5,2.1-1.4,2.9-2.4,1.2-4.2,1.2-3-.3-4-1-1.6-1.6-1.9-2.8Z"/>
          <path d="M253.9,211.2v2.6h-2.2v5c0,1,0,1.6,0,1.8s.1.3.3.4.3.2.6.2.7-.1,1.3-.3l.3,2.6c-.8.3-1.6.5-2.6.5s-1.1,0-1.6-.3-.8-.5-1-.8-.4-.7-.5-1.3c0-.4-.1-1.2-.1-2.3v-5.4h-1.5v-2.6h1.5v-2.5l3.3-1.9v4.4h2.2Z"/>
          <path d="M255.4,217.2c0-1.1.3-2.2.8-3.2s1.3-1.8,2.3-2.3,2.1-.8,3.3-.8c1.9,0,3.4.6,4.6,1.8s1.8,2.8,1.8,4.6-.6,3.4-1.8,4.7-2.7,1.9-4.6,1.9-2.2-.3-3.3-.8-1.8-1.3-2.4-2.3-.8-2.2-.8-3.6ZM258.8,217.4c0,1.2.3,2.2.9,2.8s1.3,1,2.2,1,1.6-.3,2.2-1,.9-1.6.9-2.9-.3-2.2-.9-2.8-1.3-1-2.2-1-1.6.3-2.2,1-.9,1.6-.9,2.8Z"/>
          <path d="M280.8,206.4v6.3c1.1-1.2,2.3-1.9,3.8-1.9s1.4.1,2.1.4,1.1.6,1.4,1.1.5.9.6,1.5.2,1.4.2,2.5v7.3h-3.3v-6.6c0-1.3,0-2.1-.2-2.5s-.3-.6-.7-.8-.7-.3-1.2-.3-1,.1-1.5.4-.7.7-.9,1.2-.3,1.3-.3,2.4v6.2h-3.3v-17.2h3.3Z"/>
          <path d="M299.3,219.6l3.3.6c-.4,1.2-1.1,2.1-2,2.7s-2,.9-3.4.9c-2.2,0-3.8-.7-4.8-2.1-.8-1.1-1.2-2.6-1.2-4.3s.5-3.7,1.6-4.8,2.4-1.8,4.1-1.8,3.3.6,4.4,1.8,1.6,3.1,1.5,5.6h-8.2c0,1,.3,1.7.8,2.3s1.1.8,1.9.8.9-.1,1.3-.4.6-.7.8-1.4ZM299.5,216.3c0-1-.3-1.7-.7-2.2s-1-.7-1.7-.7-1.3.3-1.8.8-.7,1.2-.7,2.1h4.9Z"/>
          <path d="M307.9,215l-3-.5c.3-1.2.9-2.1,1.7-2.7s2-.9,3.7-.9,2.6.2,3.3.5,1.2.8,1.5,1.3.4,1.5.4,2.9v3.8c0,1.1,0,1.9.1,2.4s.3,1.1.6,1.7h-3.3c0-.2-.2-.5-.3-1,0-.2,0-.3-.1-.4-.6.5-1.2,1-1.8,1.2s-1.3.4-2.1.4c-1.3,0-2.3-.3-3-1s-1.1-1.6-1.1-2.6.2-1.3.5-1.9.8-1,1.4-1.3,1.5-.5,2.6-.8c1.5-.3,2.6-.6,3.2-.8v-.3c0-.6-.2-1.1-.5-1.4s-.9-.4-1.8-.4-1,.1-1.4.3-.6.6-.8,1.2ZM312.3,217.6c-.4.1-1.1.3-2,.5s-1.5.4-1.8.6c-.4.3-.6.7-.6,1.2s.2.9.5,1.2.8.5,1.3.5,1.2-.2,1.7-.6c.4-.3.7-.7.8-1.1,0-.3.1-.8.1-1.6v-.7Z"/>
          <path d="M322,223.6h-3.3v-12.4h3.1v1.8c.5-.8,1-1.4,1.4-1.7s.9-.4,1.4-.4,1.5.2,2.2.6l-1,2.9c-.6-.4-1.1-.5-1.5-.5s-.9.1-1.2.4-.6.7-.8,1.4-.3,2.1-.3,4.2v3.8Z"/>
        </g>
        <g class="cls-4">
          <path d="M143.6,240h3v1.7c1.1-1.3,2.4-2,3.9-2s1.5.2,2.1.5,1.1.8,1.4,1.5c.5-.7,1.1-1.2,1.8-1.5s1.3-.5,2-.5,1.7.2,2.3.6,1.1.9,1.4,1.6c.2.5.3,1.4.3,2.6v8h-3.3v-7.1c0-1.2-.1-2-.3-2.4-.3-.5-.8-.7-1.4-.7s-.9.1-1.3.4-.7.7-.9,1.2-.3,1.4-.3,2.6v6h-3.3v-6.8c0-1.2,0-2-.2-2.3s-.3-.6-.5-.8-.6-.3-1-.3-1,.1-1.4.4-.7.7-.9,1.2-.3,1.4-.3,2.6v6h-3.3v-12.4Z"/>
          <path d="M172.4,248.4l3.3.6c-.4,1.2-1.1,2.1-2,2.7s-2,.9-3.4.9c-2.2,0-3.8-.7-4.8-2.1-.8-1.1-1.2-2.6-1.2-4.3s.5-3.7,1.6-4.8,2.4-1.8,4.1-1.8,3.3.6,4.4,1.8,1.6,3.1,1.5,5.6h-8.2c0,1,.3,1.7.8,2.3s1.1.8,1.9.8.9-.1,1.3-.4.6-.7.8-1.4ZM172.6,245.1c0-1-.3-1.7-.7-2.2s-1-.7-1.7-.7-1.3.3-1.8.8-.7,1.2-.7,2.1h4.9Z"/>
          <path d="M184,248.8l3.3-.5c.1.6.4,1.1.9,1.5s1,.5,1.8.5,1.5-.2,1.9-.5c.3-.2.4-.5.4-.9s0-.5-.2-.6c-.2-.2-.5-.3-1.1-.4-2.7-.6-4.3-1.1-5.1-1.6-1-.7-1.5-1.6-1.5-2.8s.4-2,1.3-2.7,2.2-1.1,4-1.1,3,.3,3.8.8,1.4,1.4,1.7,2.5l-3.1.6c-.1-.5-.4-.9-.8-1.1s-.9-.4-1.6-.4-1.5.1-1.9.4c-.2.2-.4.4-.4.7s.1.4.3.6c.3.2,1.3.5,3.1.9s3,.9,3.7,1.5c.7.6,1,1.4,1,2.4s-.5,2.1-1.4,2.9-2.4,1.2-4.2,1.2-3-.3-4-1-1.6-1.6-1.9-2.8Z"/>
          <path d="M198.5,240h3.1v1.8c.4-.6.9-1.1,1.6-1.5s1.4-.6,2.3-.6c1.4,0,2.7.6,3.7,1.7s1.5,2.7,1.5,4.7-.5,3.7-1.5,4.8-2.2,1.7-3.7,1.7-1.3-.1-1.9-.4-1.1-.7-1.8-1.4v6.3h-3.3v-17.2ZM201.7,246c0,1.4.3,2.4.8,3.1s1.2,1,2,1,1.4-.3,1.9-.9.8-1.6.8-3-.3-2.3-.8-2.9-1.2-.9-1.9-.9-1.5.3-2,.9-.8,1.5-.8,2.8Z"/>
          <path d="M220.4,248.4l3.3.6c-.4,1.2-1.1,2.1-2,2.7s-2,.9-3.4.9c-2.2,0-3.8-.7-4.8-2.1-.8-1.1-1.2-2.6-1.2-4.3s.5-3.7,1.6-4.8,2.4-1.8,4.1-1.8,3.3.6,4.4,1.8,1.6,3.1,1.5,5.6h-8.2c0,1,.3,1.7.8,2.3s1.1.8,1.9.8.9-.1,1.3-.4.6-.7.8-1.4ZM220.6,245.1c0-1-.3-1.7-.7-2.2s-1-.7-1.7-.7-1.3.3-1.8.8-.7,1.2-.7,2.1h4.9Z"/>
          <path d="M229,243.8l-3-.5c.3-1.2.9-2.1,1.7-2.7s2-.9,3.7-.9,2.6.2,3.3.5,1.2.8,1.5,1.3.4,1.5.4,2.9v3.8c0,1.1,0,1.9.1,2.4s.3,1.1.6,1.7h-3.3c0-.2-.2-.5-.3-1,0-.2,0-.3-.1-.4-.6.5-1.2,1-1.8,1.2s-1.3.4-2.1.4c-1.3,0-2.3-.3-3-1s-1.1-1.6-1.1-2.6.2-1.3.5-1.9.8-1,1.4-1.3,1.5-.5,2.6-.8c1.5-.3,2.6-.6,3.2-.8v-.3c0-.6-.2-1.1-.5-1.4s-.9-.4-1.8-.4-1,.1-1.4.3-.6.6-.8,1.2ZM233.4,246.4c-.4.1-1.1.3-2,.5s-1.5.4-1.8.6c-.4.3-.6.7-.6,1.2s.2.9.5,1.2.8.5,1.3.5,1.2-.2,1.7-.6c.4-.3.7-.7.8-1.1,0-.3.1-.8.1-1.6v-.7Z"/>
          <path d="M239.8,252.4v-17.2h3.3v9.1l3.9-4.4h4.1l-4.3,4.5,4.6,7.9h-3.6l-3.1-5.6-1.5,1.6v4h-3.3Z"/>
          <path d="M254.5,248l-.9-8.7v-4h3.6v4l-.8,8.7h-1.9ZM253.8,252.4v-3.3h3.3v3.3h-3.3Z"/>
        </g>
      </g>
      <rect class="cls-2" x="247" y="461" width="90" height="54"/>
      <g>
        <path d="M27,170.4v-54.4h10v54.4h-10Z"/>
        <path d="M53.2,170.4l19.9-54.4h10l19.9,54.4h-12.5l-2.5-6.8h-17.4l5-13.6h7.5l-5-13.6-12.5,34h-12.5Z"/>
        <path d="M104.9,170.4v-47.6l5-6.8h12.5l2.5,6.8,2.5-6.8h12.5l5,6.8v47.6h-10v-40.8h-5v40.8h-10v-40.8h-5v40.8h-10Z"/>
        <path d="M168.4,170.4l-5-6.8v-40.8l5-6.8h29.9l-5,13.6h-19.9v27.2h14.9v-13.6l-5-6.8h14.9v34h-29.9Z"/>
        <path d="M202.8,170.4v-54.4h29.9l5,6.8v20.4l-5,6.8h-2.5l7.5,20.4h-10l-10-27.2v-6.8h10v-6.8h-14.9v40.8h-10Z"/>
        <path d="M247.1,170.4l-5-6.8v-40.8l5-6.8h24.9l5,6.8v40.8l-5,6.8h-24.9ZM267,156.8v-27.2h-14.9v27.2h14.9Z"/>
        <path d="M286.4,170.4l-5-6.8v-40.8l5-6.8h24.9l5,6.8v40.8l-5,6.8h-24.9ZM306.3,156.8v-27.2h-14.9v27.2h14.9Z"/>
        <path d="M333.1,170.4v-40.8h-12.5v-13.6h34.9v13.6h-12.5v40.8h-10Z"/>
      </g>
    </g>
  </g>
</svg>